<svg width="128" height="128" viewBox="0 0 128 128" fill="none" xmlns="http://www.w3.org/2000/svg">
<path opacity="0.2" d="M126 120.501C125.998 122.49 119.464 124.397 107.837 125.804C96.2099 127.21 80.4416 128 64 128C47.5584 128 31.7901 127.21 20.1631 125.804C8.53615 124.397 2.00281 122.49 2 120.501C1.99861 119.516 3.60129 118.541 6.7164 117.631C9.83162 116.721 14.3983 115.894 20.1556 115.198C25.9131 114.5 32.7483 113.948 40.2711 113.571C47.7941 113.194 55.8571 113 64 113C72.1429 113 80.2059 113.194 87.7289 113.571C95.2517 113.948 102.087 114.5 107.844 115.198C113.602 115.894 118.169 116.721 121.283 117.631C124.399 118.541 126.001 119.516 126 120.501Z" fill="url(#paint0_radial)"/>
<g opacity="0.4">
<path d="M124.873 118.334H108.853V124.376H124.873V118.334Z" fill="url(#paint1_radial)"/>
<path d="M3.12727 124.376H19.1464V118.334H3.12727V124.376Z" fill="url(#paint2_radial)"/>
<path d="M108.853 118.334H19.1464V124.376H108.853V118.334Z" fill="url(#paint3_linear)"/>
</g>
<rect x="5.5" y="27.5" width="117" height="93" rx="4.5" fill="url(#paint4_linear)" stroke="#1A1A1A"/>
<path d="M5.5 35C5.5 33.5916 5.50039 32.5654 5.56646 31.7567C5.63205 30.9539 5.75989 30.4096 5.99047 29.957C6.4219 29.1103 7.11031 28.4219 7.95704 27.9905C8.40959 27.7599 8.95389 27.6321 9.75673 27.5665C10.5654 27.5004 11.5916 27.5 13 27.5H115C116.408 27.5 117.435 27.5004 118.243 27.5665C119.046 27.6321 119.59 27.7599 120.043 27.9905C120.89 28.4219 121.578 29.1103 122.01 29.957C122.24 30.4096 122.368 30.9539 122.434 31.7567C122.5 32.5654 122.5 33.5916 122.5 35V37.5H5.5V35Z" fill="url(#paint5_linear)" stroke="#1A1A1A"/>
<path opacity="0.6" d="M6.5 32C6.5 30.067 8.067 28.5 10 28.5H118C119.933 28.5 121.5 30.067 121.5 32V36.5H6.5V32Z" stroke="url(#paint6_linear)" stroke-linecap="round" stroke-linejoin="round"/>
<path d="M14.985 32.278L16.25 31L17 31.75L15.701 32.9935L17 34.25L16.25 35L14.994 33.7005L13.75 35L13 34.25L14.293 33L13 31.75L13.75 31L14.985 32.278Z" fill="#FAFAFA"/>
<path d="M113.5 29.875L114.484 30.8476L113.735 31.5974L113.723 31.6093C113.556 31.793 113.557 32.0765 113.735 32.2541C113.818 32.3399 113.932 32.3901 114.052 32.3944C114.172 32.3987 114.289 32.3568 114.379 32.2773L114.473 32.1837L115.152 31.5156L116.125 32.5V29.875H113.5ZM110.875 32.5V35.125H113.5L112.516 34.1406L113.266 33.3907L113.277 33.3789C113.444 33.1952 113.444 32.9117 113.266 32.7345C113.088 32.5569 112.793 32.5446 112.61 32.7109L112.527 32.8045L111.848 33.4844L110.875 32.5Z" fill="#FAFAFA"/>
<path d="M6 38H43V120H11C8.23858 120 6 117.761 6 115V38Z" fill="url(#paint7_linear)"/>
<path d="M6.5 38.5H42.5V119.5H11C8.51472 119.5 6.5 117.485 6.5 115V38.5Z" stroke="#1A1A1A" stroke-opacity="0.4"/>
<path d="M95 78C95 61.447 80.8806 48 63.5 48C46.1194 48 32 61.447 32 78C32 94.553 46.1194 108 63.5 108C80.8806 108 95 94.553 95 78Z" fill="black" fill-opacity="0.15"/>
<path d="M95 78C95 61.447 80.8806 48 63.5 48C46.1194 48 32 61.447 32 78C32 94.553 46.1194 108 63.5 108C80.8806 108 95 94.553 95 78Z" fill="black" fill-opacity="0.15" stroke="black" stroke-opacity="0.07"/>
<path d="M95 76C95 59.447 80.8806 46 63.5 46C46.1194 46 32 59.447 32 76C32 92.553 46.1194 106 63.5 106C80.8806 106 95 92.553 95 76Z" fill="url(#paint8_linear)"/>
<path opacity="0.8" d="M63.5 105.5C80.5968 105.5 94.5 92.3159 94.5 76C94.5 59.6841 80.5968 46.5 63.5 46.5C46.4032 46.5 32.5 59.6841 32.5 76C32.5 92.3159 46.4032 105.5 63.5 105.5Z" stroke="url(#paint9_linear)" stroke-linecap="round" stroke-linejoin="round"/>
<path d="M63.5 45.5C45.8665 45.5 31.5 59.1482 31.5 76C31.5 92.8518 45.8665 106.5 63.5 106.5C81.1335 106.5 95.5 92.8518 95.5 76C95.5 59.1482 81.1335 45.5 63.5 45.5Z" stroke="black" stroke-linecap="round" stroke-linejoin="round"/>
<path d="M63.0216 49.5011V49.5011L63.0125 49.5012C57.9628 49.5931 53.0315 50.9711 48.7401 53.4918C44.4485 56.0126 40.9548 59.5835 38.6318 63.8296C36.3087 68.076 35.2438 72.8382 35.5521 77.612C35.8603 82.3857 37.53 86.9896 40.3812 90.9368C43.2322 94.8838 47.158 98.0266 51.7407 100.036C56.3233 102.046 61.3946 102.849 66.4189 102.361C71.4432 101.874 76.2368 100.114 80.2924 97.2643C84.3482 94.4149 87.5162 90.5814 89.4577 86.1667L90.0597 84.7978L88.7554 85.5294C85.2989 87.468 81.3524 88.497 77.3277 88.5068C74.3734 88.5062 71.4488 87.9562 68.7212 86.889C65.9933 85.8216 63.5167 84.2581 61.4325 82.2891C59.3482 80.3202 57.6972 77.9846 56.5722 75.4166C55.4472 72.8486 54.8699 70.0977 54.8724 67.3208C54.879 64.0395 55.6951 60.8034 57.2576 57.8686C58.8202 54.9334 61.0871 52.3791 63.8809 50.4098L65.17 49.5011H63.5928H63.5564C63.3826 49.4996 63.2087 49.4996 63.0348 49.5011H63.0258H63.0257H63.0216Z" fill="#F9C440" stroke="#F9C440"/>
<path opacity="0.1" d="M63.0216 49.5011V49.5011L63.0125 49.5012C57.9628 49.5931 53.0315 50.9711 48.7401 53.4918C44.4485 56.0126 40.9548 59.5835 38.6318 63.8296C36.3087 68.076 35.2438 72.8382 35.5521 77.612C35.8603 82.3857 37.53 86.9896 40.3812 90.9368C43.2322 94.8838 47.158 98.0266 51.7407 100.036C56.3233 102.046 61.3946 102.849 66.4189 102.361C71.4432 101.874 76.2368 100.114 80.2924 97.2643C84.3482 94.4149 87.5162 90.5814 89.4577 86.1667L90.0597 84.7978L88.7554 85.5294C85.2989 87.468 81.3524 88.497 77.3277 88.5068C74.3734 88.5062 71.4488 87.9562 68.7212 86.889C65.9933 85.8216 63.5167 84.2581 61.4325 82.2891C59.3482 80.3202 57.6972 77.9846 56.5722 75.4166C55.4472 72.8486 54.8699 70.0977 54.8724 67.3208C54.879 64.0395 55.6951 60.8034 57.2576 57.8686C58.8202 54.9334 61.0871 52.3791 63.8809 50.4098L65.17 49.5011H63.5928H63.5564C63.3826 49.4996 63.2087 49.4996 63.0348 49.5011H63.0258H63.0257H63.0216Z" stroke="black"/>
<g opacity="0.3">
<mask id="path-19-outside-1" maskUnits="userSpaceOnUse" x="55" y="48" width="36" height="41" fill="black">
<rect fill="white" x="55" y="48" width="36" height="41"/>
<path d="M66.3082 50C60.0139 53.6492 56.0056 60.2413 56 67.5133C55.9995 78.828 65.5693 88.0004 77.3741 88C82.0763 87.995 86.4506 86.5276 90 84.0275"/>
</mask>
<path d="M66.8098 50.8651C67.2876 50.5881 67.4504 49.9762 67.1734 49.4984C66.8964 49.0206 66.2845 48.8579 65.8067 49.1349L66.8098 50.8651ZM56 67.5133L55 67.5125L55 67.5132L56 67.5133ZM77.3741 88L77.3742 89L77.3752 89L77.3741 88ZM90.5759 84.845C91.0274 84.527 91.1356 83.9031 90.8175 83.4516C90.4995 83.0001 89.8757 82.8919 89.4241 83.2099L90.5759 84.845ZM65.8067 49.1349C59.2213 52.9528 55.0059 59.8646 55 67.5125L57 67.5141C57.0054 60.6179 60.8064 54.3456 66.8098 50.8651L65.8067 49.1349ZM55 67.5132C54.9995 79.4198 65.0575 89.0005 77.3742 89L77.3741 87C66.0812 87.0004 56.9996 78.2362 57 67.5133L55 67.5132ZM77.3752 89C82.2864 88.9948 86.8609 87.4617 90.5759 84.845L89.4241 83.2099C86.0403 85.5934 81.8662 86.9953 77.3731 87L77.3752 89Z" fill="url(#paint10_linear)" mask="url(#path-19-outside-1)"/>
</g>
<path opacity="0.05" d="M61.9385 51.2975L60.7869 52.3665C56.3135 56.5189 53.8196 62.0538 53.8098 67.8043C53.8102 73.6968 56.419 79.3605 61.0838 83.5455C65.7505 87.7324 72.0904 90.0925 78.711 90.0927L61.9385 51.2975ZM61.9385 51.2975L60.381 51.5044M61.9385 51.2975L60.381 51.5044M60.381 51.5044C53.763 52.3832 47.707 55.3665 43.3202 59.9233C38.9321 64.4815 36.5063 70.3121 36.5 76.3551V76.3556M60.381 51.5044L36.5 76.3556M36.5 76.3556C36.5 79.6656 37.2268 82.9417 38.637 85.9962C40.0472 89.0505 42.1123 91.822 44.7116 94.154C47.3108 96.4859 50.3937 98.3332 53.783 99.5927C57.1722 100.852 60.8033 101.5 64.4691 101.5H64.4698M36.5 76.3556L64.4698 101.5M64.4698 101.5C69.2885 101.494 74.0259 100.368 78.2213 98.2309C82.4168 96.0932 85.9307 93.0142 88.416 89.2883L89.2487 88.0399M64.4698 101.5L89.2487 88.0399M89.2487 88.0399L87.8336 88.5393M89.2487 88.0399L87.8336 88.5393M87.8336 88.5393C84.9291 89.5644 81.8346 90.0916 78.7112 90.0927L87.8336 88.5393Z" stroke="url(#paint11_linear)"/>
<g opacity="0.3">
<mask id="path-22-outside-2" maskUnits="userSpaceOnUse" x="33" y="48" width="59" height="56" fill="black">
<rect fill="white" x="33" y="48" width="59" height="56"/>
<path d="M65.109 49.0516C64.3925 49.0093 63.6747 48.993 62.9569 49.0027C49.1639 49.1827 37.5101 58.796 35.3521 71.7741C33.0657 85.5233 42.129 98.6744 56.2819 102.144C70.4335 105.612 85.0342 98.2635 90 85.1724"/>
</mask>
<path d="M65.0501 50.0498C65.6015 50.0824 66.0748 49.6618 66.1073 49.1104C66.1398 48.5591 65.7192 48.0858 65.1679 48.0533L65.0501 50.0498ZM62.9569 49.0027L62.97 50.0026L62.9704 50.0026L62.9569 49.0027ZM35.3521 71.7741L36.3386 71.9381L36.3386 71.9381L35.3521 71.7741ZM56.2819 102.144L56.0438 103.115H56.0438L56.2819 102.144ZM90.935 85.5271C91.1309 85.0107 90.8711 84.4333 90.3547 84.2375C89.8383 84.0416 89.2609 84.3014 89.065 84.8178L90.935 85.5271ZM65.1679 48.0533C64.4273 48.0096 63.6853 47.9928 62.9434 48.0028L62.9704 50.0026C63.664 49.9933 64.3578 50.009 65.0501 50.0498L65.1679 48.0533ZM62.9439 48.0028C48.7017 48.1886 36.6087 58.1209 34.3657 71.61L36.3386 71.9381C38.4116 59.471 49.6262 50.1767 62.97 50.0026L62.9439 48.0028ZM34.3657 71.61C31.9874 85.9117 41.4198 99.5301 56.0438 103.115L56.5199 101.172C42.8383 97.8186 34.144 85.1349 36.3386 71.9381L34.3657 71.61ZM56.0438 103.115C70.6553 106.696 85.779 99.1196 90.935 85.5271L89.065 84.8178C84.2893 97.4075 70.2118 104.528 56.5199 101.172L56.0438 103.115Z" fill="url(#paint12_linear)" mask="url(#path-22-outside-2)"/>
</g>
<path d="M77.9355 58L76.8984 62.957L72 63.9355L76.9219 65.0195L78.0645 70L79.0195 65.0781L84 64.0645L79.043 62.8984L77.9355 58Z" fill="#D4D4D4"/>
<path d="M84.9766 72L84.6328 73.6484L83 73.9766L84.6406 74.3438L85.0234 76L85.3438 74.3594L87 74.0234L85.3516 73.6328L84.9766 72Z" fill="#D4D4D4"/>
<path d="M66.459 68L65.8574 70.8848L63 71.459L65.8711 72.1016L66.541 75L67.1016 72.1289L70 71.541L67.1152 70.8574L66.459 68Z" fill="#D4D4D4"/>
<path opacity="0.8" d="M7 37.5C6.72386 37.5 6.5 37.7239 6.5 38V115C6.5 117.485 8.51472 119.5 11 119.5H117C119.485 119.5 121.5 117.485 121.5 115V38C121.5 37.7239 121.276 37.5 121 37.5H7Z" stroke="url(#paint13_linear)" stroke-linecap="round" stroke-linejoin="round"/>
<defs>
<radialGradient id="paint0_radial" cx="0" cy="0" r="1" gradientUnits="userSpaceOnUse" gradientTransform="translate(64 120.501) scale(62 7.5)">
<stop/>
<stop offset="1" stop-opacity="0"/>
</radialGradient>
<radialGradient id="paint1_radial" cx="0" cy="0" r="1" gradientUnits="userSpaceOnUse" gradientTransform="translate(108.832 121.355) scale(16.0494 3.02104)">
<stop stop-color="#181818"/>
<stop offset="1" stop-color="#181818" stop-opacity="0"/>
</radialGradient>
<radialGradient id="paint2_radial" cx="0" cy="0" r="1" gradientUnits="userSpaceOnUse" gradientTransform="translate(19.1689 121.355) rotate(180) scale(16.0494 3.02104)">
<stop stop-color="#181818"/>
<stop offset="1" stop-color="#181818" stop-opacity="0"/>
</radialGradient>
<linearGradient id="paint3_linear" x1="67.3899" y1="124.4" x2="67.3899" y2="118.334" gradientUnits="userSpaceOnUse">
<stop stop-color="#181818" stop-opacity="0"/>
<stop offset="0.5" stop-color="#181818"/>
<stop offset="1" stop-color="#181818" stop-opacity="0"/>
</linearGradient>
<linearGradient id="paint4_linear" x1="64" y1="27" x2="64" y2="121" gradientUnits="userSpaceOnUse">
<stop stop-color="#4D4D4D"/>
<stop offset="1" stop-color="#333333"/>
</linearGradient>
<linearGradient id="paint5_linear" x1="64" y1="27.5893" x2="64" y2="38" gradientUnits="userSpaceOnUse">
<stop stop-color="#4D4D4D"/>
<stop offset="1" stop-color="#333333"/>
</linearGradient>
<linearGradient id="paint6_linear" x1="64" y1="27.8331" x2="64" y2="37.1669" gradientUnits="userSpaceOnUse">
<stop stop-color="white"/>
<stop offset="0.0631645" stop-color="white" stop-opacity="0.235294"/>
<stop offset="0.950563" stop-color="white" stop-opacity="0.156863"/>
<stop offset="1" stop-color="white" stop-opacity="0.392157"/>
</linearGradient>
<linearGradient id="paint7_linear" x1="24.5" y1="38" x2="24.5" y2="120" gradientUnits="userSpaceOnUse">
<stop stop-color="#333333" stop-opacity="0.5"/>
<stop offset="1" stop-color="#333333"/>
</linearGradient>
<linearGradient id="paint8_linear" x1="63.5" y1="46" x2="63.5" y2="106" gradientUnits="userSpaceOnUse">
<stop stop-color="#333333"/>
<stop offset="1" stop-color="#1A1A1A"/>
</linearGradient>
<linearGradient id="paint9_linear" x1="61.0803" y1="46.4089" x2="61.0803" y2="105.901" gradientUnits="userSpaceOnUse">
<stop stop-color="white" stop-opacity="0.49"/>
<stop offset="0.078125" stop-color="white" stop-opacity="0.235294"/>
<stop offset="0.9999" stop-color="white" stop-opacity="0.156863"/>
<stop offset="1" stop-color="white" stop-opacity="0.392157"/>
</linearGradient>
<linearGradient id="paint10_linear" x1="61.1173" y1="91.1826" x2="61.1173" y2="26.1441" gradientUnits="userSpaceOnUse">
<stop stop-color="white"/>
<stop offset="0.424479" stop-color="white" stop-opacity="0.235294"/>
<stop offset="0.820899" stop-color="white" stop-opacity="0.156863"/>
<stop offset="1" stop-color="white" stop-opacity="0.392157"/>
</linearGradient>
<linearGradient id="paint11_linear" x1="61.9807" y1="51.7515" x2="61.9807" y2="101.616" gradientUnits="userSpaceOnUse">
<stop/>
<stop offset="1" stop-opacity="0"/>
</linearGradient>
<linearGradient id="paint12_linear" x1="62.0643" y1="103.386" x2="62.0643" y2="48.4569" gradientUnits="userSpaceOnUse">
<stop stop-color="white"/>
<stop offset="0.488913" stop-color="white" stop-opacity="0.235294"/>
<stop offset="0.820899" stop-color="white" stop-opacity="0.156863"/>
<stop offset="1" stop-color="white" stop-opacity="0.392157"/>
</linearGradient>
<linearGradient id="paint13_linear" x1="59.4779" y1="37.1745" x2="59.4779" y2="120.258" gradientUnits="userSpaceOnUse">
<stop stop-color="white" stop-opacity="0"/>
<stop offset="0.078125" stop-color="white" stop-opacity="0.235294"/>
<stop offset="0.9999" stop-color="white" stop-opacity="0.156863"/>
<stop offset="1" stop-color="white" stop-opacity="0.392157"/>
</linearGradient>
</defs>
</svg>
