<svg width="24" height="24" viewBox="0 0 24 24" fill="none" xmlns="http://www.w3.org/2000/svg">
<rect x="1.5" y="4.5" width="21" height="18" rx="1.5" fill="url(#paint0_linear)" stroke="#1A1A1A"/>
<g opacity="0.6">
<mask id="path-2-inside-1" fill="white">
<path d="M2 6C2 5.44772 2.44772 5 3 5H21C21.5523 5 22 5.44772 22 6H2Z"/>
</mask>
<path d="M2 6C2 5.44772 2.44772 5 3 5H21C21.5523 5 22 5.44772 22 6H2Z" fill="url(#paint1_linear)"/>
<path d="M2 5C1.44772 5 1 5.44772 1 6C1 6.55228 1.44772 7 2 7V5ZM3 6H21V4H3V6ZM22 5H2V7H22V5ZM21 6H23C23 4.89543 22.1046 4 21 4V6ZM3 4C1.89543 4 1 4.89543 1 6H3V4Z" fill="url(#paint2_linear)" mask="url(#path-2-inside-1)"/>
</g>
<line x1="2" y1="7.5" x2="22" y2="7.5" stroke="#1A1A1A"/>
<path opacity="0.8" d="M2.5 8.5H21.5V21C21.5 21.2761 21.2761 21.5 21 21.5H3C2.72386 21.5 2.5 21.2761 2.5 21V8.5Z" stroke="url(#paint3_linear)" stroke-linecap="round" stroke-linejoin="round"/>
<circle cx="12.25" cy="14.5" r="5" fill="url(#paint4_linear)" stroke="#1A1A1A"/>
<path d="M10.8606 11.2701C10.8194 11.3441 10.7806 11.4197 10.744 11.4966C10.4855 12.0411 10.351 12.6403 10.3499 13.2471L10.3499 13.2476C10.3495 13.7611 10.4447 14.2703 10.6306 14.7462C10.8166 15.2222 11.0901 15.6566 11.4368 16.0237C11.7835 16.3909 12.1968 16.6839 12.6537 16.8843C13.1108 17.0848 13.6017 17.1885 14.0983 17.1886L14.0998 17.1886C14.2621 17.1881 14.4236 17.1766 14.5833 17.1544C14.4551 17.2947 14.3162 17.424 14.1677 17.541C13.6761 17.9282 13.0975 18.1656 12.4936 18.2313C11.8899 18.297 11.2796 18.189 10.7265 17.9171C10.1731 17.645 9.69581 17.2179 9.34765 16.6775C8.99938 16.137 8.79427 15.5045 8.75639 14.8469C8.71852 14.1893 8.84949 13.5342 9.13385 12.9515C9.41814 12.3689 9.84414 11.8821 10.3637 11.54C10.5228 11.4351 10.6891 11.345 10.8606 11.2701Z" fill="#F9C440" stroke="url(#paint5_linear)"/>
<defs>
<linearGradient id="paint0_linear" x1="12" y1="4" x2="12" y2="23" gradientUnits="userSpaceOnUse">
<stop stop-color="#4D4D4D"/>
<stop offset="1" stop-color="#333333"/>
</linearGradient>
<linearGradient id="paint1_linear" x1="12" y1="5" x2="12" y2="6" gradientUnits="userSpaceOnUse">
<stop stop-color="#4D4D4D"/>
<stop offset="1" stop-color="#333333"/>
</linearGradient>
<linearGradient id="paint2_linear" x1="12" y1="4.98145" x2="12" y2="6.01855" gradientUnits="userSpaceOnUse">
<stop stop-color="white"/>
<stop offset="0.0631645" stop-color="white" stop-opacity="0.235294"/>
<stop offset="0.950563" stop-color="white" stop-opacity="0.156863"/>
<stop offset="1" stop-color="white" stop-opacity="0.392157"/>
</linearGradient>
<linearGradient id="paint3_linear" x1="11.2067" y1="7.85732" x2="11.2067" y2="22.2175" gradientUnits="userSpaceOnUse">
<stop stop-color="white" stop-opacity="0"/>
<stop offset="0.078125" stop-color="white" stop-opacity="0.235294"/>
<stop offset="0.9999" stop-color="white" stop-opacity="0.156863"/>
<stop offset="1" stop-color="white" stop-opacity="0.392157"/>
</linearGradient>
<linearGradient id="paint4_linear" x1="12.25" y1="9" x2="12.25" y2="20" gradientUnits="userSpaceOnUse">
<stop stop-color="#333333"/>
<stop offset="1" stop-color="#1A1A1A"/>
</linearGradient>
<linearGradient id="paint5_linear" x1="12" y1="10.5" x2="12" y2="18.75" gradientUnits="userSpaceOnUse">
<stop stop-color="white"/>
<stop offset="0.0001" stop-color="white" stop-opacity="0.348958"/>
<stop offset="0.9999" stop-color="white" stop-opacity="0.125419"/>
<stop offset="1" stop-color="white" stop-opacity="0"/>
</linearGradient>
</defs>
</svg>
